<svg xmlns="http://www.w3.org/2000/svg" width="256" height="256" viewBox="0 0 100 100"><rect width="100" height="100" rx="20" fill="#2565c7"></rect><path d="M29.10 80.45L29.10 80.45Q27.40 79.05 26.30 76.65Q25.20 74.25 25.20 71.15L25.20 71.15Q25.20 68.65 26.50 66.05Q27.80 63.45 29.60 61.25L29.60 61.25L52.60 33.85L28.00 33.85Q27.20 32.65 26.65 30.90Q26.10 29.15 26.10 26.95L26.10 26.95Q26.10 23.15 27.80 21.35Q29.50 19.55 32.40 19.55L32.40 19.55L69.70 19.55Q74.10 23.15 74.10 29.15L74.10 29.15Q74.10 31.65 72.95 34.10Q71.80 36.55 70 38.75L70 38.75L47.10 66.15L72.90 66.15Q73.60 67.35 74.20 69.15Q74.80 70.95 74.80 73.15L74.80 73.15Q74.80 76.95 73.15 78.70Q71.50 80.45 68.60 80.45L68.60 80.45L29.10 80.45Z" fill="#fff"></path></svg>